<?xml version="1.0" encoding="UTF-8" standalone="no"?>
<svg
   xmlns:dc="http://purl.org/dc/elements/1.1/"
   xmlns:cc="http://creativecommons.org/ns#"
   xmlns:rdf="http://www.w3.org/1999/02/22-rdf-syntax-ns#"
   xmlns:svg="http://www.w3.org/2000/svg"
   xmlns="http://www.w3.org/2000/svg"
   xmlns:sodipodi="http://sodipodi.sourceforge.net/DTD/sodipodi-0.dtd"
   xmlns:inkscape="http://www.inkscape.org/namespaces/inkscape"
   width="504"
   height="504"
   version="1"
   viewBox="0 0 133 133"
   id="svg15"
   sodipodi:docname="aimmark.svg"
   inkscape:version="0.92.4 (5da689c313, 2019-01-14)">
  <metadata
     id="metadata19">
    <rdf:RDF>
      <cc:Work
         rdf:about="">
        <dc:format>image/svg+xml</dc:format>
        <dc:type
           rdf:resource="http://purl.org/dc/dcmitype/StillImage" />
      </cc:Work>
    </rdf:RDF>
  </metadata>
  <sodipodi:namedview
     pagecolor="#ffffff"
     bordercolor="#666666"
     borderopacity="1"
     objecttolerance="10"
     gridtolerance="10"
     guidetolerance="10"
     inkscape:pageopacity="0"
     inkscape:pageshadow="2"
     inkscape:window-width="659"
     inkscape:window-height="480"
     id="namedview17"
     showgrid="false"
     inkscape:zoom="0.46825397"
     inkscape:cx="251.96764"
     inkscape:cy="251.99368"
     inkscape:window-x="0"
     inkscape:window-y="0"
     inkscape:window-maximized="0"
     inkscape:current-layer="svg15" />
  <defs
     id="defs7">
    <radialGradient
       id="a"
       cx="256"
       cy="256"
       r="250"
       gradientUnits="userSpaceOnUse"
       gradientTransform="matrix(0,0.26458,-0.26458,-0.00450061,134.34938,0.03460809)">
      <stop
         offset="0"
         id="stop2" />
      <stop
         offset="1"
         stop-opacity="0"
         id="stop4" />
    </radialGradient>
  </defs>
  <g
     id="g25">
    <path
       d="M 132.49732,67.735584 A 66.443129,65.322477 45.24365 0 0 66.6169,0.73451193 66.443129,65.322477 45.24365 0 0 0.73648,65.49428 66.443129,65.322477 45.24365 0 0 66.6169,132.49535 66.443129,65.322477 45.24365 0 0 132.49732,67.735584 Z m -19.8435,-0.337546 A 46.430138,45.647032 45.24365 0 1 66.6169,112.65185 46.430138,45.647032 45.24365 0 1 20.57998,65.831826 46.430138,45.647032 45.24365 0 1 66.6169,20.578012 46.430138,45.647032 45.24365 0 1 112.65382,67.398038 Z"
       id="path9"
       style="fill:#c83737;stroke:url(#a);stroke-width:0.52916002;stroke-linejoin:round"
       inkscape:connector-curvature="0" />
    <path
       d="m 131.34938,67.983577 -119,-40.024236 43,38.731446 -43,37.268553 z"
       id="path11"
       inkscape:connector-curvature="0"
       style="fill:#ff5555;stroke:#ededeb" />
  </g>
</svg>
