<svg xmlns="http://www.w3.org/2000/svg" width="504" height="504" version="1" viewBox="0 0 133 133">
  <defs>
    <radialGradient id="a" cx="256" cy="256" r="250" gradientTransform="matrix(0 .26458 -.26458 -.0045 134.3 0)" gradientUnits="userSpaceOnUse">
      <stop offset="0"/>
      <stop offset="1" stop-opacity="0"/>
    </radialGradient>
  </defs>
  <path fill="#c83737" stroke="url(#a)" stroke-linejoin="round" stroke-width=".5" d="M132.5 67.7A66.4 65.3 45.2 0 0 66.6.7 66.4 65.3 45.2 0 0 .7 65.5a66.4 65.3 45.2 0 0 66 67 66.4 65.3 45.2 0 0 65.8-64.8zm-19.8-.3a46.4 45.6 45.2 0 1-46 45.3 46.4 45.6 45.2 0 1-46.1-46.9 46.4 45.6 45.2 0 1 46-45.2 46.4 45.6 45.2 0 1 46 46.8z"/>
  <path fill="#f55" stroke="#ededeb" d="M131.3 68l-119-40 43 38.7-43 37.3z"/>
</svg>
