<svg xmlns="http://www.w3.org/2000/svg" xmlns:xlink="http://www.w3.org/1999/xlink" width="256" height="256" viewBox="0 0 67.7 67.7">
  <defs>
    <radialGradient id="a" cx="87.9" cy="269.1" r="12.8" gradientTransform="matrix(1 0 0 1.4404 -56.5 -360.9)" gradientUnits="userSpaceOnUse">
      <stop offset="0" stop-color="#e5f1e5"/>
      <stop offset="1" stop-color="#e5f1e5" stop-opacity="0"/>
    </radialGradient>
  </defs>
  <path fill="#01f300" stroke="#b1f7ba" stroke-linecap="round" stroke-linejoin="round" stroke-width="3.5" d="M34 60.6c-4.2 0-14.5-19.2-14.5-26.8 0-7.6 10.4-27 14.4-27 4.1 0 14.4 19.4 14.4 27 0 7.6-10.3 26.9-14.4 26.9z" paint-order="fill markers stroke"/>
  <ellipse cx="31.4" cy="26.7" fill="url(#a)" paint-order="fill markers stroke" rx="12.8" ry="18.4"/>
  <g fill="#ea821d" stroke="#f7e5b1" stroke-linecap="round" stroke-linejoin="round" paint-order="fill markers stroke" transform="translate(0 -229.3)">
    <path stroke-width="2.9" d="M43 238.6a62.8 62.8 0 018.6 24.6c0 6-5 19.5-8.7 24.7 3.4-.2 6.4-.8 7.9-1.9a50 50 0 0010-22.7 50 50 0 00-10-22.8c-1.5-1-4.5-1.7-7.7-1.9z"/>
    <path stroke-width="2.8" d="M24.4 238.6c-3 .2-5.6.8-7 1.9A50.9 50.9 0 008 263.3c0 5.2 6.2 20.1 9.5 22.8 1.3 1 4 1.6 7 1.8a65 65 0 01-8.2-24.7c0-6 4.6-19.2 8-24.6z"/>
    <circle id="b" cx="-210" cy="263.1" r="10.1" stroke-width="1.3"/>
  </g>
  <text stroke-width=".2" font-family="Source Code Pro" font-size="6.6" letter-spacing="0" style="line-height:1.25" word-spacing="0">
    <textPath xlink:href="#b"><tspan>STOP</tspan> </textPath>
  </text>
  <circle cx="32.4" cy="-35.4" r="5.2" fill="none" transform="rotate(91.7)"/>
</svg>
