<?xml version="1.0" encoding="UTF-8" standalone="no"?>
<svg
   xmlns:dc="http://purl.org/dc/elements/1.1/"
   xmlns:cc="http://creativecommons.org/ns#"
   xmlns:rdf="http://www.w3.org/1999/02/22-rdf-syntax-ns#"
   xmlns:svg="http://www.w3.org/2000/svg"
   xmlns="http://www.w3.org/2000/svg"
   xmlns:sodipodi="http://sodipodi.sourceforge.net/DTD/sodipodi-0.dtd"
   xmlns:inkscape="http://www.inkscape.org/namespaces/inkscape"
   width="250"
   height="250"
   version="1"
   viewBox="0 0 66 66"
   id="svg12"
   sodipodi:docname="bullet_aim.svg"
   inkscape:version="0.92.4 (5da689c313, 2019-01-14)">
  <metadata
     id="metadata18">
    <rdf:RDF>
      <cc:Work
         rdf:about="">
        <dc:format>image/svg+xml</dc:format>
        <dc:type
           rdf:resource="http://purl.org/dc/dcmitype/StillImage" />
      </cc:Work>
    </rdf:RDF>
  </metadata>
  <defs
     id="defs16" />
  <sodipodi:namedview
     pagecolor="#ffffff"
     bordercolor="#666666"
     borderopacity="1"
     objecttolerance="10"
     gridtolerance="10"
     guidetolerance="10"
     inkscape:pageopacity="0"
     inkscape:pageshadow="2"
     inkscape:window-width="659"
     inkscape:window-height="480"
     id="namedview14"
     showgrid="false"
     inkscape:zoom="0.944"
     inkscape:cx="125"
     inkscape:cy="125"
     inkscape:window-x="0"
     inkscape:window-y="0"
     inkscape:window-maximized="0"
     inkscape:current-layer="svg12" />
  <g
     transform="rotate(-90,-79.528,148.528)"
     id="g10"
     style="stroke-linecap:round;stroke-linejoin:round">
    <circle
       cx="36"
       cy="261"
       r="32"
       id="circle2"
       style="fill:#ffc9c0;stroke:#fdeeeb;stroke-width:2;paint-order:fill markers stroke" />
    <path
       d="m 4,235 c 4,17 9,33 18,42 9,9 19,8 28,0 8,-9 13,-26 18,-42 -3,20 -6,40 -15,50 -10,10 -25,10 -34,0 C 9,275 6,255 4,235"
       transform="matrix(0.94827,0,0,0.83791,2,47)"
       id="path4"
       inkscape:connector-curvature="0"
       style="fill:#ff4d30;stroke:#f2967d;stroke-width:2" />
    <path
       d="m 4,235 c 4,17 9,33 18,42 9,9 19,8 28,0 8,-9 13,-26 18,-42 -3,20 -6,40 -15,50 -10,10 -25,10 -34,0 C 9,275 6,255 4,235"
       transform="matrix(0.73175,0,0,0.89836,10,27)"
       id="path6"
       inkscape:connector-curvature="0"
       style="fill:#d01d00;stroke:#f2967d;stroke-width:2" />
    <ellipse
       cx="36"
       cy="261"
       rx="14"
       ry="24"
       id="ellipse8"
       style="fill:#ffe3de;stroke:#ce3c15;stroke-width:4;paint-order:fill markers stroke" />
  </g>
</svg>
