<svg xmlns="http://www.w3.org/2000/svg" width="250" height="250" version="1" viewBox="0 0 66 66">
  <g stroke-linecap="round" stroke-linejoin="round" transform="rotate(-90 -79.5 148.5)">
    <circle cx="36" cy="261" r="32" fill="#ffc9c0" stroke="#fdeeeb" stroke-width="2" paint-order="fill markers stroke"/>
    <path fill="#ff4d30" stroke="#f2967d" stroke-width="2" d="M4 235c4 17 9 33 18 42s19 8 28 0c8-9 13-26 18-42-3 20-6 40-15 50-10 10-25 10-34 0-10-10-13-30-15-50" transform="matrix(.94827 0 0 .83791 2 47)"/>
    <path fill="#d01d00" stroke="#f2967d" stroke-width="2" d="M4 235c4 17 9 33 18 42s19 8 28 0c8-9 13-26 18-42-3 20-6 40-15 50-10 10-25 10-34 0-10-10-13-30-15-50" transform="matrix(.73175 0 0 .89836 10 27)"/>
    <ellipse cx="36" cy="261" fill="#ffe3de" stroke="#ce3c15" stroke-width="4" paint-order="fill markers stroke" rx="14" ry="24"/>
  </g>
</svg>
