<svg xmlns="http://www.w3.org/2000/svg" xmlns:xlink="http://www.w3.org/1999/xlink" width="499.5" height="308.6" viewBox="0 0 132.2 81.7">
  <defs>
    <linearGradient id="b">
      <stop offset="0" stop-color="red"/>
      <stop offset="1" stop-color="#ffe000" stop-opacity=".2"/>
    </linearGradient>
    <linearGradient id="a">
      <stop offset="0" stop-color="#dcffff"/>
      <stop offset="1" stop-color="#dcffff" stop-opacity="0"/>
    </linearGradient>
    <radialGradient id="e" cx="83" cy="177.5" r="6.8" fx="83" fy="177.5" gradientTransform="matrix(-.45412 0 0 -1.15244 104.2 222.7)" gradientUnits="userSpaceOnUse" xlink:href="#a"/>
    <radialGradient id="c" cx="93.8" cy="196.1" r="10.1" fx="93.8" fy="196.1" gradientTransform="translate(-1.5 -184.7)" gradientUnits="userSpaceOnUse" xlink:href="#b"/>
    <filter id="d" width="1.1" height="1.1" x="-.1" y="-.1" color-interpolation-filters="sRGB">
      <feGaussianBlur stdDeviation=".6"/>
    </filter>
    <radialGradient id="f" cx="93.8" cy="196.1" r="10.1" fx="93.8" fy="196.1" gradientTransform="translate(-54 -184.7)" gradientUnits="userSpaceOnUse" xlink:href="#b"/>
    <filter id="g" width="1.1" height="1.1" x="-.1" y="-.1" color-interpolation-filters="sRGB">
      <feGaussianBlur stdDeviation=".6"/>
    </filter>
  </defs>
  <path fill="#5a7255" stroke="#000" stroke-width=".5" d="M128.4 50.4a3.5 3.5 0 0 0 3.5-3.5v-6.2c0-2-1.8-2.6-3.5-3.5a123 123 0 0 0-62-18.2h-.6c-20.4.1-41 6-62 18.2-1.7 1-3.5 1.5-3.5 3.5V47a3.5 3.5 0 0 0 3.5 3.5h62.7z"/>
  <g stroke="#000" stroke-width=".5">
    <path fill="#907d78" stroke-linejoin="round" d="M33.5 66.7a7.7 14.8 0 0 1 1.7-19 7.7 14.8 0 0 1 10 .1 7.7 14.8 0 0 1 1.5 19"/>
    <path fill="none" d="M33.4 66.7h13.3M32.4 60h15.4m-15.1-5.6H47"/>
  </g>
  <circle cx="92.4" cy="11.3" r="9.8" fill="url(#c)" filter="url(#d)" transform="rotate(180 66.1 40.9)"/>
  <path fill="#5a7255" stroke="#000" stroke-width=".5" d="M43.7 55.4h-7.4a4.5 3.3 0 0 1-4.5-3.3V17.5a4.5 3.3 0 0 1 4.5-3.3h7.4a4.5 3.3 0 0 1 4.5 3.3v34.6a4.5 3.3 0 0 1-4.5 3.3z"/>
  <path fill="#42632f" stroke="#000" stroke-width=".5" d="M66.4 53.7A7.5 26.7 0 0 0 73.9 27 7.5 26.7 0 0 0 66.4.3 7.5 26.7 0 0 0 58.8 27a7.5 26.7 0 0 0 7.6 26.7z"/>
  <path fill="#0ff" stroke="#000" stroke-linejoin="round" stroke-width=".5" d="M66.2 29.2A4.7 13.3 0 0 0 70.4 16a4.7 13.3 0 0 0-4.1-13v-.2a4.7 13.3 0 0 0-.2 0 4.7 13.3 0 0 0-.1 0A4.7 13.3 0 0 0 61.8 16 4.7 13.3 0 0 0 66 29.2a4.7 13.3 0 0 0 .1 0 4.7 13.3 0 0 0 .2 0z"/>
  <path fill="url(#e)" d="M66.2 26v-.2a3.1 7.9 0 0 0 2.6-7.8 3.1 7.9 0 0 0-2.5-7.7 3.1 7.9 0 0 0-.2 0 3.1 7.9 0 0 0-.1 0 3.1 7.9 0 0 0-2.6 7.7 3.1 7.9 0 0 0 2.6 7.8 3.1 7.9 0 0 0 .1 0 3.1 7.9 0 0 0 .2 0z"/>
  <path fill="#797ab0" stroke="#000" stroke-linejoin="round" stroke-width=".5" d="M41 19h-1.8c-1 0-1.7-.7-1.7-1.7v-6.9c0-1 .8-1.7 1.7-1.7h1.7c1 0 1.7.8 1.7 1.7v7c0 1-.8 1.6-1.7 1.6z"/>
  <g stroke="#000" stroke-width=".5">
    <path fill="#907d78" stroke-linejoin="round" d="M86.1 66.7a7.7 14.8 0 0 1 1.7-19 7.7 14.8 0 0 1 10 .1 7.7 14.8 0 0 1 1.6 19"/>
    <path fill="none" d="M86 66.7h13.3M85 60h15.4m-15-5.6h14.2"/>
  </g>
  <circle cx="39.7" cy="11.3" r="9.8" fill="url(#f)" filter="url(#g)" transform="rotate(180 66.1 40.9)"/>
  <path fill="#5a7255" stroke="#000" stroke-width=".5" d="M96.3 55.4h-7.4a4.5 3.3 0 0 1-4.4-3.3V17.5a4.5 3.3 0 0 1 4.4-3.3h7.4a4.5 3.3 0 0 1 4.5 3.3v34.6a4.5 3.3 0 0 1-4.5 3.3z"/>
  <path fill="#797ab0" stroke="#000" stroke-linejoin="round" stroke-width=".5" d="M91.2 19H93c.9 0 1.6-.7 1.6-1.7v-6.9c0-1-.7-1.7-1.6-1.7h-1.8c-1 0-1.7.8-1.7 1.7v7c0 1 .7 1.6 1.7 1.6z"/>
  <g stroke="#000" stroke-linejoin="round" transform="translate(-14.3 3.4)">
    <circle cx="40.1" cy="32.8" r="5.2" fill="#42632f" stroke-width="1.3" paint-order="stroke markers fill"/>
    <path fill="#797ab0" stroke-width=".5" d="M41 40.5h-1.8c-1 0-1.7-.7-1.7-1.7v-7c0-1 .8-1.6 1.7-1.6h1.7c1 0 1.7.8 1.7 1.7v7c0 .9-.8 1.6-1.7 1.6z"/>
  </g>
  <g stroke="#000" stroke-linejoin="round" transform="translate(66.8 3.4)">
    <circle cx="40.1" cy="32.8" r="5.2" fill="#42632f" stroke-width="1.3" paint-order="stroke markers fill"/>
    <path fill="#797ab0" stroke-width=".5" d="M41 40.5h-1.8c-1 0-1.7-.7-1.7-1.7v-7c0-1 .8-1.6 1.7-1.6h1.7c1 0 1.7.8 1.7 1.7v7c0 .9-.8 1.6-1.7 1.6z"/>
  </g>
</svg>
