<svg xmlns="http://www.w3.org/2000/svg" xmlns:xlink="http://www.w3.org/1999/xlink" width="191.6" height="360.9" viewBox="0 0 50.7 95.5">
  <defs>
    <linearGradient id="a">
      <stop offset="0" stop-color="#baffff"/>
      <stop offset="1" stop-color="#0ff" stop-opacity="0"/>
    </linearGradient>
    <radialGradient id="b" cx="67.9" cy="234.2" r="4.1" fx="67.9" fy="234.2" gradientTransform="matrix(1.6507 0 0 3.43286 -45.6 -564.8)" gradientUnits="userSpaceOnUse" xlink:href="#a"/>
  </defs>
  <g transform="translate(-41.9 -165)">
    <rect width="4.7" height="45.1" x="77.7" y="215.2" fill="#8b9ec2" stroke="#000" stroke-linejoin="round" stroke-width=".4" ry="2.1"/>
    <path fill="#758273" stroke="#000" stroke-linejoin="round" stroke-width=".6" d="M67 165.3v.1a3.7 3.7 0 0 0-2.5 3.1l-3.8 37.4a3.7 3.7 0 0 0 3.3 4l2.9.3h.6l3-.3a3.7 3.7 0 0 0 3.2-4L70 168.5a3.7 3.7 0 0 0-2.4-3v-.2a3.6 3.6 0 0 0-.3 0 3.6 3.6 0 0 0-.3 0z"/>
    <rect width="4.7" height="45.1" x="-56.7" y="215.2" fill="#8b9ec2" stroke="#000" stroke-linejoin="round" stroke-width=".4" ry="2.1" transform="scale(-1 1)"/>
    <path fill="#938274" stroke="#000" stroke-linejoin="round" stroke-width=".5" d="M59.7 186.2a11 11 0 0 0-3.4.6l-6.7 2.3a11 11 0 0 0-6.9 14L59 250.5c4 9.2 13.1 9.6 16.6 0L91.7 203a11 11 0 0 0-6.9-14l-6.7-2.3a11 11 0 0 0-3.8-.6 11 11 0 0 0-7.1 2.8 11 11 0 0 0-7.5-2.8z"/>
    <path fill="#74a8e4" stroke="#000" stroke-linejoin="round" stroke-width=".5" d="M64 225.3c-8 6-9.2 9.8-6 19.3 5.6 15 13.7 13.3 18.3 0 3.3-9.5 2.2-13.2-6-19.3H64z"/>
    <ellipse cx="66.4" cy="239.1" fill="url(#b)" rx="6.4" ry="13.8"/>
  </g>
</svg>
