<svg xmlns="http://www.w3.org/2000/svg" width="244.9" height="61.4" viewBox="0 0 64.8 16.3">
  <g font-weight="400" letter-spacing="0" word-spacing="0">
    <g aria-label="Move" style="line-height:1.25;-inkscape-font-specification:Audiowide" fill="#08f80f" font-family="Audiowide" font-size="85.3">
      <path d="M18.4 16h-2.9V6.6l-5 9-.6.5q-.3.2-.7.2-.4 0-.7-.2l-.5-.5-5.1-9V16H0V1.4Q0 1 .3.6T1 0h.4l.5.1.4.2.3.4L9.2 12 15.7.7q.3-.4.7-.6.5-.2 1 0 .4 0 .7.5.3.4.3.8zM34.3 12q0 .7-.2 1.3l-.5 1q-.3.5-.7.8-.4.4-.9.5l-.9.3-.8.1H25l-1.3-.2q-.7-.2-1.3-.7-.6-.4-1-1.2-.4-.8-.4-1.9V8.1q0-1 .4-1.8t1-1.3q.6-.5 1.3-.7l1.3-.2h5.2q1 0 1.8.4t1.3 1q.5.6.7 1.3l.2 1.3zm-2.9-3.8q0-.6-.3-1-.3-.2-.8-.2H25q-.5 0-.8.3-.3.3-.3.8v4q0 .5.3.8.3.3.8.3h5.2q.6 0 .8-.3.3-.3.3-.9zM51 4.1l-1.2 3q-.6 1.5-1.5 2.8-.8 1.3-1.9 2.5-1 1-2.3 1.9-1.2.8-2.7 1.3-1.5.5-3.2.5l-.6-.2q-.3 0-.5-.3-.2-.1-.3-.4V4.1h2.8v9q1 0 2-.5 1-.4 1.8-1.2.9-.7 1.6-1.7l1.3-1.9 1-2 .6-1.7zM64.8 8l-.2 1.4q-.2.6-.7 1.2-.5.6-1.2 1-.8.4-1.8.4h-5.2V9.3h5.2q.5 0 .9-.4.3-.3.3-.9 0-.5-.4-.8-.3-.4-.8-.4h-5.2q-.6 0-1 .4-.2.4-.2.9v4q0 .6.3.9.4.3 1 .3h5V16h-5.1l-1.3-.2q-.7-.2-1.3-.6-.6-.5-1-1.3-.4-.7-.4-1.8V8l.2-1.3.7-1.3q.5-.6 1.2-1 .8-.4 1.9-.4h5.2l1.2.2q.7.2 1.3.7.6.5 1 1.2.4.8.4 1.9z"/>
    </g>
  </g>
</svg>
