<svg xmlns="http://www.w3.org/2000/svg" xmlns:xlink="http://www.w3.org/1999/xlink" width="256" height="256" viewBox="0 0 67.7 67.7">
  <defs>
    <linearGradient id="a">
      <stop offset="0" stop-color="#ccf0fe"/>
      <stop offset="1" stop-color="#b6aef4"/>
    </linearGradient>
    <radialGradient id="b" cx="33.8" cy="263.1" r="24.1" fx="33.8" fy="263.1" gradientTransform="matrix(.13828 0 0 .58078 28.2 -136.3)" gradientUnits="userSpaceOnUse" xlink:href="#a"/>
    <radialGradient id="k" cx="33.8" cy="263.1" r="24.1" fx="33.8" fy="263.1" gradientTransform="matrix(.11134 0 0 .46763 -46.2 -114)" gradientUnits="userSpaceOnUse" xlink:href="#a"/>
    <radialGradient id="j" cx="33.8" cy="263.1" r="24.1" fx="33.8" fy="263.1" gradientTransform="matrix(.08511 0 0 .35746 -19 -151.5)" gradientUnits="userSpaceOnUse" xlink:href="#a"/>
    <radialGradient id="i" cx="33.8" cy="263.1" r="24.1" fx="33.8" fy="263.1" gradientTransform="matrix(.11927 0 0 .50091 -49.4 -151.5)" gradientUnits="userSpaceOnUse" xlink:href="#a"/>
    <radialGradient id="h" cx="33.8" cy="263.1" r="24.1" fx="33.8" fy="263.1" gradientTransform="matrix(.13395 0 0 .56256 -18.6 -210.1)" gradientUnits="userSpaceOnUse" xlink:href="#a"/>
    <radialGradient id="g" cx="33.8" cy="263.1" r="24.1" fx="33.8" fy="263.1" gradientTransform="matrix(.12798 0 0 .5375 -51.3 -174)" gradientUnits="userSpaceOnUse" xlink:href="#a"/>
    <radialGradient id="f" cx="33.8" cy="263.1" r="24.1" fx="33.8" fy="263.1" gradientTransform="matrix(.0974 0 0 .4091 13.4 -75.4)" gradientUnits="userSpaceOnUse" xlink:href="#a"/>
    <radialGradient id="e" cx="33.8" cy="263.1" r="24.1" fx="33.8" fy="263.1" gradientTransform="matrix(.10927 0 0 .45894 43 -144.6)" gradientUnits="userSpaceOnUse" xlink:href="#a"/>
    <radialGradient id="d" cx="33.8" cy="263.1" r="24.1" fx="33.8" fy="263.1" gradientTransform="matrix(.14244 0 0 .59825 -3.7 -127.9)" gradientUnits="userSpaceOnUse" xlink:href="#a"/>
    <radialGradient id="c" cx="33.8" cy="263.1" r="24.1" fx="33.8" fy="263.1" gradientTransform="matrix(.1181 0 0 .49602 10.5 -100)" gradientUnits="userSpaceOnUse" xlink:href="#a"/>
  </defs>
  <ellipse cx="32.9" cy="16.4" fill="#f9faff" fill-opacity=".8" stroke="url(#b)" stroke-linejoin="round" stroke-width="2" paint-order="stroke markers fill" rx="3" ry="12.8" transform="rotate(-.8) skewX(.1)"/>
  <ellipse cx="14.5" cy="30.4" fill="#f9faff" fill-opacity=".8" stroke="url(#c)" stroke-linejoin="round" stroke-width="1.7" paint-order="stroke markers fill" rx="2.6" ry="10.9" transform="rotate(-27.3) skewX(.1)"/>
  <ellipse cx="1.2" cy="29.5" fill="#f9faff" fill-opacity=".8" stroke="url(#d)" stroke-linejoin="round" stroke-width="2" paint-order="stroke markers fill" rx="3.1" ry="13.2" transform="matrix(-.68364 .72982 .7281 .68547 0 0)"/>
  <ellipse cx="46.8" cy="-23.9" fill="#f9faff" fill-opacity=".8" stroke="url(#e)" stroke-linejoin="round" stroke-width="1.6" paint-order="stroke markers fill" rx="2.4" ry="10.1" transform="rotate(56.6) skewX(.1)"/>
  <ellipse cx="16.7" cy="32.2" fill="#f9faff" fill-opacity=".8" stroke="url(#f)" stroke-linejoin="round" stroke-width="1.4" paint-order="stroke markers fill" rx="2.1" ry="9" transform="matrix(-.40857 .91273 .9117 .41086 0 0)"/>
  <ellipse cx="-47.1" cy="-32.5" fill="#f9faff" fill-opacity=".8" stroke="url(#g)" stroke-linejoin="round" stroke-width="1.8" paint-order="stroke markers fill" rx="2.8" ry="11.8" transform="rotate(-155.5) skewX(.1)"/>
  <ellipse cx="-14.1" cy="-62.1" fill="#f9faff" fill-opacity=".8" stroke="url(#h)" stroke-linejoin="round" stroke-width="1.9" paint-order="stroke markers fill" rx="2.9" ry="12.4" transform="matrix(.52116 -.85346 -.85215 -.5233 0 0)"/>
  <ellipse cx="-45.4" cy="-19.7" fill="#f9faff" fill-opacity=".8" stroke="url(#i)" stroke-linejoin="round" stroke-width="1.7" paint-order="stroke markers fill" rx="2.6" ry="11" transform="rotate(-138.3) skewX(.1)"/>
  <ellipse cx="-16.2" cy="-57.4" fill="#f9faff" fill-opacity=".8" stroke="url(#j)" stroke-linejoin="round" stroke-width="1.2" paint-order="stroke markers fill" rx="1.9" ry="7.9" transform="matrix(.37085 -.9287 -.92776 -.37318 0 0)"/>
  <ellipse cx="-42.4" cy="9" fill="#f9faff" fill-opacity=".8" stroke="url(#k)" stroke-linejoin="round" stroke-width="1.6" paint-order="stroke markers fill" rx="2.4" ry="10.3" transform="matrix(-.96492 -.26254 -.26496 .96426 0 0)"/>
</svg>
