<svg xmlns="http://www.w3.org/2000/svg" id="_x32_" x="0" y="0" opacity="1" version="1.1" viewBox="0 0 512 512" style="width:128px;height:128px" xml:space="preserve">
  <path fill="#ff8600" d="M392 71L256 0 120 71 28 46v253c0 107 177 213 228 213s228-106 228-213V46l-92 25zm31 228c0 59-125 145-167 152-42-7-167-93-167-152V125l38 11 129-67 129 67 38-11v174z" class="st0"/>
  <path fill="#ff8600" d="M119 165v134c0 31 75 92 120 114V112l-108 56-12-3zM273 112v301c45-22 120-83 120-114V165l-12 3-108-56z" class="st0"/>
</svg>
