<svg xmlns="http://www.w3.org/2000/svg" width="216.9" height="79.3" viewBox="0 0 57.4 21">
  <path fill="#f80855" d="M15.8 11.2q0 .8-.2 1.5T15 14l-.8 1-1 .5-1 .3-1 .1H.2V13h11q.8 0 1.3-.4.4-.5.4-1.3v-.8l-.4-.5-.6-.4q-.3-.2-.7-.2H4.6l-1.5-.2q-.8-.2-1.5-.8Q.9 7.8.5 7 0 6 0 4.7q0-1.3.5-2.2.4-.9 1.1-1.4.7-.6 1.5-.8.8-.3 1.5-.3h9.8v3H4.6q-.8 0-1.3.4-.4.5-.4 1.3T3.3 6q.5.5 1.3.5h7.6l1 .4 1 .7q.5.3.8.8l.6 1.2q.2.7.2 1.6zm12.4-4.4h-5v9h-2.9v-9h-3.7v-3h3.7V0h3v4h5zM41.8 12l-.2 1.3q-.2.6-.7 1.2-.5.6-1.2 1-.8.4-1.9.4h-5.1l-1.3-.2q-.7-.2-1.3-.7-.6-.4-1-1.2-.4-.8-.4-1.8l.2-1.3q.2-.7.7-1.3.5-.6 1.2-1 .8-.4 1.9-.4h5.1v2.7h-5.1q-.6 0-1 .4-.3.4-.3 1 0 .4.4.8.4.3.9.3h5.1q.6 0 1-.4.3-.3.3-.9v-4q0-.5-.4-.9-.3-.3-.9-.3h-6.3V4h6.3l1.3.2q.7.2 1.3.7.6.4 1 1.2.4.8.4 1.8zM57.4 17q0 .7-.2 1.3l-.5 1q-.3.5-.7.8l-.9.5-.9.3h-6v-2.8h5.2q.6 0 .8-.3.3-.3.3-.8V4h2.9zm-4-1.2h-5.2l-1.3-.2q-.7-.2-1.3-.7-.6-.5-1-1.2-.4-.8-.4-2V4H47v8q0 .4.2.7.3.3 1 .3h5z" aria-label="Stay" font-family="Audiowide" font-size="85.3" font-weight="400" letter-spacing="0" word-spacing="0"/>
</svg>
