<svg xmlns="http://www.w3.org/2000/svg" width="216.9" height="79.3" viewBox="0 0 57.4 21">
  <g font-weight="400" letter-spacing="0" word-spacing="0">
    <text x="41.6" y="14.3" stroke-width=".3" font-family="sans-serif" font-size="10.6" style="line-height:1.25" transform="translate(-2.6 -9.7)"/>
    <g fill="#f80855" aria-label="Stay" font-family="Audiowide" font-size="85.3" style="line-height:1.25;-inkscape-font-specification:Audiowide">
      <path d="M15.8 11.2q0 .8-.2 1.5t-.6 1.2q-.3.5-.8.9l-1 .6-1 .3-1 .1H.2V13h11q.8 0 1.3-.4.4-.5.4-1.3v-.8l-.4-.5-.6-.4q-.3-.2-.7-.2H4.6l-1.5-.2q-.8-.2-1.5-.8Q.9 7.8.5 6.9 0 5.9 0 4.7q0-1.3.5-2.2.4-.9 1.1-1.4.7-.6 1.5-.8.8-.3 1.5-.3h9.8v2.9H4.6q-.8 0-1.3.5-.4.5-.4 1.3T3.3 6q.5.5 1.3.5h7.6l1 .4 1 .7q.5.3.8.8l.6 1.2q.2.7.2 1.6zM28.2 6.8h-5v9h-2.9v-9h-3.7v-3h3.7V0h3v3.9h5zM41.8 11.9l-.2 1.3q-.2.6-.7 1.2-.5.6-1.2 1-.8.4-1.9.4h-5.1l-1.3-.2q-.7-.2-1.3-.7-.6-.4-1-1.2-.4-.8-.4-1.8l.2-1.3q.2-.7.7-1.3.5-.6 1.2-1 .8-.4 1.9-.4h5.1v2.7h-5.1q-.6 0-1 .4-.3.4-.3.9t.4.9q.4.3.9.3h5.1q.6 0 1-.4.3-.3.3-.9v-4q0-.5-.4-.9-.3-.3-.9-.3h-6.3V4h6.3l1.3.2q.7.2 1.3.7.6.4 1 1.2.4.8.4 1.8zM57.4 17q0 .7-.2 1.3l-.5 1q-.3.5-.7.8l-.9.5-.9.3h-6v-2.8h5.2q.6 0 .8-.3.3-.3.3-.8V3.9h2.9zm-4-1.2h-5.2l-1.3-.2q-.7-.2-1.3-.7-.6-.5-1-1.2-.4-.8-.4-2V4H47v7.9q0 .5.2.8.3.3 1 .3h5z"/>
    </g>
  </g>
</svg>
