<svg xmlns="http://www.w3.org/2000/svg" xmlns:xlink="http://www.w3.org/1999/xlink" width="256" height="256" viewBox="0 0 67.7 67.7">
  <defs>
    <radialGradient id="a" cx="87.9" cy="269.1" r="12.8" gradientTransform="matrix(1 0 0 1.4404 -56.5 -131.6)" gradientUnits="userSpaceOnUse">
      <stop offset="0" stop-color="#e5f1e5"/>
      <stop offset="1" stop-color="#e5f1e5" stop-opacity="0"/>
    </radialGradient>
  </defs>
  <g transform="translate(0 -229.3)">
    <path fill="#01f300" stroke="#b1f7ba" stroke-linecap="round" stroke-linejoin="round" stroke-width="4.2" d="M33.7 278c-6.7 0-23.6-16.9-23.6-23.6s17-23.7 23.6-23.7c6.7 0 23.7 17 23.7 23.7 0 6.7-17 23.7-23.7 23.7z" paint-order="fill markers stroke" transform="matrix(.6088 0 0 1.1351 13.4 -25.7)"/>
    <ellipse cx="31.4" cy="256" fill="url(#a)" paint-order="fill markers stroke" rx="12.8" ry="18.4"/>
    <g fill="#ea821d" stroke="#f7e5b1" stroke-linecap="round" stroke-linejoin="round">
      <path stroke-width="2.9" d="M43 238.6a62.8 62.8 0 0 1 8.6 24.6c0 6-5 19.5-8.7 24.7 3.4-.2 6.4-.8 7.9-1.9a50 50 0 0 0 10-22.7 50 50 0 0 0-10-22.8c-1.5-1-4.5-1.7-7.7-1.9z" paint-order="fill markers stroke"/>
      <path stroke-width="2.8" d="M24.4 238.6c-3 .2-5.6.8-7 1.9A50.9 50.9 0 0 0 8 263.3c0 5.2 6.2 20.1 9.5 22.8 1.3 1 4 1.6 7 1.8a65 65 0 0 1-8.2-24.7c0-6 4.6-19.2 8-24.6z" paint-order="fill markers stroke"/>
      <circle id="b" cx="-210" cy="263.1" r="10.1" stroke-width="1.3" paint-order="fill markers stroke"/>
    </g>
    <text stroke-width=".2" font-family="'Source Code Pro'" font-size="6.6" letter-spacing="0" style="line-height:1.25" word-spacing="0">
      <textPath xlink:href="#b"><tspan>STOP</tspan></textPath>
    </text>
    <circle cx="261.6" cy="-42.2" r="5.2" fill="none" transform="rotate(91.7)"/>
    <path stroke-width=".3" d="M31.7 267.1l.5.5.3.5v.6q0 .3-.3.6-.3.4-.6.5h-.9q-.5 0-1.1-.3l-1.5-.9-.3.5v.4q0 .3.2.5 0 .2.4.5t.9.4l.9.2v.6h-.6l-.6-.2-.6-.2-.6-.3q-.8-.7-.9-1.5 0-.7.5-1.5l2-2.5.5.4-.4.6 1.2.2q.6 0 1 .4zm-.6.4l-.8-.4h-1l-.9 1 1.2.7 1 .4h.5l.4-.3.1-.4v-.4l-.2-.3-.3-.3zm-1.6-6.5q0 .4-.4.7-.3.4-.7.6l.5.3-.2.7-7.2-2.3.3-.8 2 .6.9.3q-.3-.4-.3-1v-.9l.5-.8.7-.5 1-.1 1 .2 1 .5q.5.3.7.8.3.4.3.8v1zm-.7 0v-.7l-.2-.6-.5-.5-.8-.4-.8-.1H26q-.3.1-.5.4l-.3.5q-.1.4 0 .8l.2 1 2.5.7.7-.6.3-.6zm5.2-3.3l-.9-.1-.8-.5-.6-.8-.3-1.2q0-.6.2-1.1l.5-1 .8-.5 1-.2 1 .2q.4.1.8.5l.6.8q.2.5.2 1.1l-.1 1.2q-.2.5-.6.8-.3.4-.8.6-.4.2-1 .2zm0-.7q.4 0 .7-.2.3-.1.5-.4l.3-.6.1-.8-.1-.8-.4-.7-.5-.3q-.3-.2-.7-.2-.4 0-.7.2l-.5.4-.3.7v1.6l.4.6.6.4h.7zm4.5 2.3l4.7-1.9.3.7-1.1.5q.7.2 1.3.6.5.4.8 1l.2.6v.5h-.8v-.4l-.2-.5q-.2-.5-.7-.9-.5-.3-1.4-.5l-2.8 1.1zm-1.7 7.9q.4-.4.8-.5.4-.2.8-.1.3 0 .7.3l.6.6 1.6 1.8 1.1-1 .4.5-1 1 1 1.4-.6.5-1-1.3-2 1.7-.4-.6 1.9-1.6L39 268l-.5-.4-.4-.2h-.5l-.5.4-.5.5-.3.5-.6-.3.4-.7.6-.6z" aria-label="abort"/>
  </g>
</svg>
